<svg width="398" height="456" viewBox="0 0 398 456" fill="none" xmlns="http://www.w3.org/2000/svg">
<g clip-path="url(#clip0_330_395)">
<rect width="398" height="456" fill="black"/>
<rect y="1" width="398" height="456" fill="black"/>
<g style="mix-blend-mode:lighten">
<path d="M207.084 -110.398L190.945 -111.881L233.59 -84.7289L215.473 -105.077L207.037 -110.403L207.084 -110.398ZM243.179 -43.5983L278.312 -34.5474L275.872 -37.2871L240.814 -46.3029L243.226 -43.5939L243.179 -43.5983ZM52.2866 -120.891L116.138 -103.746L102.063 -82.6537L38.1629 -118.401L34.3564 -118.186L100.89 -80.8959L97.7025 -76.1294L-50.4545 -123.972L-50.118 -121.934L96.582 -74.5082L91.3002 -66.627L-351.65 -178.867L-348.014 -171.269L-137.814 -117.782L-121.863 -89.3231L-189.321 -105.98L-172.434 -79.3004L-340.451 -122.213L-338.802 -118.895C-345.419 -125.694 -352.403 -132.073 -359.21 -137.815L-230.983 -110.599L-258.186 -141.788L-263.751 -142.865L-239.199 -114.605L-362.78 -140.8C-381.508 -156.172 -397.862 -166.437 -398.958 -167.132L-410.182 -166.071C-409.392 -165.575 -366.518 -138.458 -342.012 -106.443C-306.936 -60.6526 -323.911 -27.5876 -396.738 -10.3954C-492.088 12.1044 -584.672 37.5152 -619.282 90.5544C-639.365 121.299 -639.494 159.275 -617.972 207.805C-597.117 254.805 -555.938 311.501 -489.946 382.009L-467.606 384.062C-523.253 325.612 -561.844 276.361 -585.124 234.595L-530.789 239.587L-354.201 394.482L-346.534 395.187L-523.736 240.235L-400.014 251.604L-289.5 400.427L-282.117 401.106L-393.246 252.226L-334.366 257.636L-200.092 408.643L-185.373 409.995L-274.72 310.376L-230.097 192.682L-191.441 219.553C-218.987 241.329 -209.515 284.965 -156.125 341.172L-81.6713 419.524L-57.154 421.777L-132.696 343.325C-150.581 324.751 -163.057 307.663 -170.531 292.532L-73.5975 301.439L123.507 438.377L131.364 439.099L-66.3085 302.109L46.386 312.464L41.8325 313.403L235.066 448.628L242.781 449.337L46.7647 312.499L125.428 319.727L266.717 401.394L331.668 457.505L346.388 458.857L289.97 410.428L546.689 442.213L597.808 481.959L622.325 484.212L534.181 416.304L560.37 420.972L651.062 459.379L727.272 469.661L722.147 463.904L646.011 453.658L574.856 423.575L707.292 447.219L702.413 441.74L662.219 434.57L578.062 341.561L617.648 346.584L613.208 341.597L566.039 335.623L653.819 433.092L608.575 425.034L525.202 349.452L425.197 292.042L521.472 288.056L576.666 300.505L572.692 296.041L534.797 287.5L564.004 286.283L559.399 281.111L488.794 284.008L339.803 203.159C357.805 202.976 377.597 203.777 398.654 205.317L558.824 280.465L554.329 275.416L405.786 205.859C435.985 208.295 468.703 212.29 502.555 217.266L495.018 208.801C487.243 207.634 479.543 206.503 472.115 205.481C460.018 203.804 448.417 202.342 437.19 201.056L402.753 164.624L460.402 169.921L448.452 156.5L368.274 149.132L291.011 86.6615L421.592 126.332L412.932 116.604L321.876 55.0424L368.832 67.0734L359.404 56.4839L289.377 38.602L254.723 9.97913L313.978 23.6208L253.145 -18.3462L304.444 -5.29432L296.002 -14.7757L264.083 -22.8529L204.949 -79.8986L248.422 -68.2159L246.12 -70.8017L50.9135 -123.166L52.4559 -120.847L52.2866 -120.891ZM123.42 -29.1357L173.973 -16.2371L219.689 20.8077L73.6864 -16.4638L66.7062 -29.4288L136.678 -13.2196L123.42 -29.1357V-29.1357ZM6.5224 4.69702L2.52932 17.7843C-2.00127 32.6594 -25.57 39.0864 -63.8132 35.5723L-116.113 30.7666L-165.816 -23.3492L-77.4877 -6.0468L-115.045 -38.2717L6.44762 4.6619L6.5224 4.69702ZM-119.477 -42.1273L-146.156 -65.0144L15.0881 -23.6572L7.12963 2.54814L-119.552 -42.1624L-119.477 -42.1273ZM-188.971 59.8838L-36.3273 118.427L-32.5054 157.473L-85.6103 152.594L-188.943 59.9146L-188.971 59.8838ZM-91.7906 151.998L-148.919 146.748L-195.941 103.111L-138.003 110.441L-91.8654 151.963L-91.7906 151.998ZM-28.6242 121.368L51.2773 152L69.0863 166.78L-24.8179 158.152L-28.6242 121.368ZM44.772 146.598L-28.8715 118.406L-32.5734 82.4234L44.8194 146.602L44.772 146.598ZM-77.6848 40.8835L-54.6819 42.9971C-45.7364 43.8191 -37.6081 44.1137 -30.1948 43.947L19.9681 71.7337L-36.7373 74.7201L-77.61 40.9186L-77.6848 40.8835ZM16.8792 119.077L147.985 131.124L210.605 179.784L75.2392 167.346L16.8792 119.077V119.077ZM11.896 114.944L-31.9662 78.6634L26.8715 75.5337L115.124 124.43L11.9434 114.949L11.896 114.944ZM-25.3548 43.7699C-6.94375 42.7764 6.0088 38.4832 12.6285 31.1772L99.6132 67.5199L24.7731 71.4686L-25.3075 43.7742L-25.3548 43.7699ZM-83.2698 40.3703L-40.4164 75.9083L-36.5547 115.439L-194.28 55.0432L-225.195 27.3009L-83.2498 40.3438L-83.2698 40.3703ZM-142.466 106.357L-252.064 92.4987L-330.356 17.6945L-230.867 26.8363L-142.485 106.383L-142.466 106.357ZM-258.247 91.7044L-374.577 76.9733L-415.37 44.1402L-288.537 62.6629L-258.275 91.6736L-258.247 91.7044ZM-369.425 81.1494L-254.022 95.7671L-206.378 141.469L-430.773 120.85L-366.156 83.7958L-369.425 81.1494V81.1494ZM-247.819 96.5349L-202.077 102.321L-155.005 146.161L-200.205 142.007L-247.846 96.5042L-247.819 96.5349ZM-69.4988 161.904L124.24 226.824L-62.9998 209.619L-184.418 151.344L-69.4988 161.904V161.904ZM-56.5776 163.091L217.751 188.298L240.816 237.536L137.635 228.055L-56.5776 163.091V163.091ZM224.993 188.964L270.762 193.169C274.083 207.296 284.354 224.153 301.162 243.081L248.294 238.223L224.945 188.959L224.993 188.964ZM316.092 258.726C329.375 271.79 345.362 285.696 364.128 300.281L482.97 392.661L182.43 246.445L316.14 258.731L316.092 258.726ZM268.321 185.059L216.73 180.319L153.874 131.636L258.096 141.213L282.43 159.221C274.584 164.662 270.206 171.948 269.553 181.074C269.459 182.676 269.467 184.345 269.597 186.052L268.301 185.085L268.321 185.059ZM121.534 124.99L31.582 75.2599L108.345 71.177L234.928 124.075L252.478 137.051L121.608 125.025L121.534 124.99ZM113.731 70.8805L159.705 68.4343L226.801 118.071L113.731 70.8805ZM104.877 67.1838L14.0156 29.2696C15.2558 27.4898 16.1968 25.5694 16.839 23.5085L29.4048 -20.024L45.8567 -15.7988L154.475 64.562L104.877 67.1838V67.1838ZM53.0186 -13.9536L212.182 26.8733L277.86 80.1392L112.566 29.9869L53.0186 -13.9536V-13.9536ZM51.0967 -69.7559L93.5187 -58.9612L114.501 -33.6862L72.9458 -44.2882L51.1438 -69.7516L51.0967 -69.7559ZM44.7342 -71.3864L66.3664 -45.9669L20.3869 -57.682L-4.48405 -83.9079L44.6868 -71.3907L44.7342 -71.3864ZM-131.676 -116.257L-82.4578 -103.735L-61.2206 -74.3669L-115.583 -87.7851L-131.649 -116.226L-131.676 -116.257ZM-114.152 -85.2511L-53.0215 -70.1369L-76.3396 -102.184L-10.7717 -85.5032L16.6955 -56.4101L116.786 -30.8759L127.719 -17.7172L58.7367 -33.6942L67.025 -18.2348L-12.1221 -38.4528L-12.4961 -39.7026L-105.391 -69.7481L-114.16 -85.3083L-114.152 -85.2511ZM-181.543 -101.93L-120.338 -86.7805L-110.482 -69.1702L-28.1054 -42.4936L-166.126 -77.7315L-181.516 -101.899L-181.543 -101.93ZM-152.762 -66.7238L-87.6846 -10.7147L-236.236 -39.7692L-259.041 -93.9855L-152.762 -66.7238ZM-325.043 -103.442C-327.597 -106.701 -330.325 -109.863 -333.141 -112.977L-265.112 -95.5326L-242.452 -40.9904L-305.749 -53.3642C-303.986 -68.1261 -310.564 -84.9829 -325.015 -103.411L-325.043 -103.442ZM-307.093 -47.0149C-306.745 -48.2831 -306.518 -49.5908 -306.264 -50.8676L-171.889 -24.5573L-145.972 3.77151L-325.517 -22.7039C-315.93 -29.8504 -309.767 -37.9614 -307.093 -47.0149ZM-380.283 -0.0646388C-358.36 -5.31437 -341.245 -12.1082 -328.991 -20.3097L-142.91 7.16205L-121.793 30.2447L-399.814 4.69821C-393.337 3.08862 -386.834 1.50981 -380.283 -0.0646388V-0.0646388ZM-418.825 9.50885L-336.09 17.1111L-292.673 58.7497L-420.432 40.1136L-448.499 17.5229C-438.782 14.7696 -428.84 12.1217 -418.825 9.50885V9.50885ZM-456.041 19.7412L-387.369 75.3456L-546.727 55.1909C-521.237 41.1111 -489.992 29.7366 -456.014 19.772L-456.041 19.7412ZM-587.733 229.663C-613.615 181.41 -618.648 143.299 -605.519 112.65L-537.931 118.861L-468.602 240.609L-587.686 229.667L-587.733 229.663ZM-338.869 252.53L-461.786 241.236L-531.636 119.439L-450.606 126.885L-338.869 252.53ZM-601.806 105.106C-600.895 103.493 -600.011 101.85 -599.025 100.273C-588.559 83.7673 -572.297 69.9135 -551.926 57.992L-384.219 79.2247L-453.878 118.67L-601.834 105.075L-601.806 105.106ZM-281.701 302.583L-438.252 128.02L-305.584 140.21L-237.327 187.636L-281.701 302.583V302.583ZM-299.005 140.815L-192.843 150.57L-71.7086 208.819L-109.573 205.339C-145.781 202.012 -172.454 206.515 -188.544 217.388L-299.053 140.811L-299.005 140.815ZM-172.824 287.517C-182.401 265.24 -180.514 247.493 -167.987 235.84L-81.5227 295.906L-172.776 287.521L-172.824 287.517ZM-74.281 296.572L-165.227 233.522C-151.237 222.681 -126.781 218.032 -92.7029 221.163L-36.0482 226.369L115.562 314.016L-74.2336 296.576L-74.281 296.572ZM-28.712 227.043L76.0308 236.668L252.882 389.467L-28.6647 227.048L-28.712 227.043ZM276.621 398.997L88.9523 237.855L174.148 245.683L318.568 316.078L276.621 398.997ZM286.016 404.863L327.932 320.641L495.051 402.081L538.858 436.152L286.016 404.863ZM518.573 349.182L600.309 423.511L526.385 410.33L386.184 302.307C382.569 299.516 379.076 296.764 375.705 294.052L419.587 292.233L518.573 349.182V349.182ZM369.344 288.86C348.867 271.913 332.931 256.26 321.405 242.142L440.834 285.932L369.344 288.86ZM483.137 284.195L448.509 285.62L318.061 237.85C308.789 225.777 302.856 214.915 300.255 205.405C310.66 204.156 322.112 203.399 334.494 203.152L334.273 203.245L483.157 284.168L483.137 284.195ZM383.719 162.819L396.167 163.962L430.324 200.228C376.347 194.222 332.372 192.471 298.711 195.031C298.539 169.944 327.49 157.652 383.766 162.823L383.719 162.819ZM362.141 148.54C326.571 145.442 300.405 148.464 285.135 157.378L118.062 34.1098L282.658 84.1132L362.094 148.536L362.141 148.54ZM314.009 52.9911L415.885 122.02L285.969 82.6085L219.27 28.6834L314.056 52.9954L314.009 52.9911ZM282.018 36.6821L226.722 22.5562L176.708 -17.8513L120.931 -32.0779L99.8264 -57.3923L198.818 -32.2134L281.991 36.6513L282.018 36.6821ZM301.524 18.3214L250.493 6.59429L205.641 -30.4558L245.692 -20.2747L301.497 18.2906L301.524 18.3214ZM257.09 -24.6543L98.502 -64.8347L112.886 -86.6056L217.764 -62.7231L257.117 -24.6235L257.09 -24.6543ZM198.11 -81.7707L214.871 -65.5327L114.024 -88.4513L122.941 -101.962L198.063 -81.775L198.11 -81.7707ZM-517.365 -72.2718L-516.607 -72.2022L-516.909 -72.5409C-506.727 -79.0673 -499.582 -86.4663 -495.615 -94.7509C-488.292 -109.907 -491.519 -127.784 -504.591 -147.64C-525.934 -179.958 -566.222 -206.611 -567.884 -207.697L-573.551 -207.228L-579.17 -206.755C-578.503 -206.298 -540.173 -180.673 -520.871 -150.549C-517.522 -145.323 -514.925 -140.308 -513.026 -135.441L-551.79 -139.003L-566.479 -173.367L-571.979 -174.664L-557.091 -139.49L-587.761 -142.309L-621.549 -175.572L-626.369 -175.959L-592.778 -142.77L-690.232 -151.724C-691.558 -153.994 -693.297 -156.387 -695.49 -158.85L-721.662 -188.05L-731.412 -188.946L-705.429 -159.763C-688.566 -140.774 -702.226 -127.416 -736.352 -130.552L-760.254 -132.748L-808.557 -203.694L-813.604 -204.384L-787.206 -165.412L-885.749 -174.467L-912.044 -209.614L-928.231 -211.101L-902.409 -175.997L-964.412 -181.695L-977.387 -211.35L-982.449 -212.154L-969.429 -182.156L-1023.05 -187.083C-1023.23 -187.382 -1023.39 -187.708 -1023.57 -188.007L-1047.73 -225.785L-1057.39 -226.672L-1033.56 -188.925C-1033.38 -188.626 -1033.22 -188.3 -1033.04 -188.001L-1126.71 -196.608L-1145.9 -231.103L-1150.78 -231.551L-1130.25 -194.332L-1031.66 -185.273C-1024.42 -168.95 -1041.11 -158.019 -1072.26 -160.4L-1109.27 -163.207L-1203.68 -204.67L-1228.97 -255.921L-1244.88 -257.382L-1219.77 -205.074L-1290.35 -217.466L-1295.12 -245.718L-1300.08 -246.513L-1295.47 -218.39L-1377.41 -232.759L-1375.8 -247.846L-1380.75 -248.866L-1384.82 -212.043L-1450.58 -219.33L-1448.01 -216.436L-1395.79 -210.649L-1432.28 -198.766L-1429.7 -195.873L-1387.34 -209.703L-1385.16 -209.503L-1389.93 -166.186L-1405.5 -168.691L-1402.57 -165.397L-1390.24 -163.417L-1391.44 -152.899L-1386.5 -147.358L-1380.2 -206.559L-1285.02 -154.964L-1280.61 -128.187L-1377.35 -137.076L-1374.45 -133.813L-1334.17 -130.112L-1345.23 -100.998L-1340.87 -96.1032L-1328.58 -128.864L-1331.91 -129.877L-1243.88 -121.787L-1272.71 -19.5445L-1267.77 -14.0035L-1238.09 -121.283L-1176.89 -115.66L-1133.74 -25.7131C-1126.04 -9.68518 -1140.68 1.68845 -1166.52 -0.686152L-1263.93 -9.63657L-1252.14 3.60035L-1182.99 9.95436L-1140.21 109.111L-1159.81 107.31L-1155.7 111.928L-1008.59 125.445C-996.834 148.119 -984.419 172.07 -972.307 195.484L-1091.01 184.577L-1086.46 189.687L-969.746 200.412C-961.796 215.783 -953.998 230.887 -946.61 245.19L-1045.1 236.139L-1035.4 247.037L-1018.41 248.598L-1001.01 285.67L-986.424 302.047L-1011.45 249.237L-941.214 255.691C-916.864 302.955 -898.204 339.436 -896.003 344.641L-895.861 344.654C-895.926 343.8 -895.269 342.928 -893.423 343.097L-892.453 344.967L-888.62 345.319C-889.567 343.084 -891.735 338.843 -895.961 330.484C-899.585 323.339 -904.509 313.757 -910.535 302.01L-783.121 313.718C-774.551 327.931 -764.915 342.61 -754.362 357.684L-731.596 359.776C-936.239 68.5246 -715.534 -20.9206 -574.918 -51.1041C-550.106 -56.4275 -530.882 -63.5363 -517.101 -72.2193L-517.365 -72.2718ZM-512.153 -132.704C-505.68 -113.426 -511.058 -97.1592 -528.843 -84.2369L-584.853 -139.384L-512.153 -132.704ZM-589.87 -139.845L-531.683 -82.3497C-536.437 -79.1969 -541.992 -76.2589 -548.299 -73.5314L-661.48 -101.908L-639.094 -144.369L-589.87 -139.845V-139.845ZM-785.414 -162.619L-765.48 -133.2L-805.664 -136.892L-820.534 -165.846L-785.414 -162.619V-162.619ZM-872.555 -156.719L-883.72 -171.652L-825.598 -166.311L-810.87 -137.371L-863.786 -142.233C-865.967 -146.928 -868.865 -151.745 -872.555 -156.719V-156.719ZM-861.47 -136.509L-731.358 -124.553C-697.612 -121.452 -681.176 -132.181 -688.792 -148.935L-645.484 -144.956L-677.255 -85.4091L-860.474 -112.985C-858.288 -120.049 -858.552 -127.959 -861.47 -136.509V-136.509ZM-1024.02 -32.7031L-1041.46 -63.6166L-910.813 -39.3447L-928.222 -23.9005L-1023.97 -32.6987L-1024.02 -32.7031ZM-931.729 -20.8592L-935.208 -17.7871L-918.171 9.49962L-1004.74 1.54515L-1022.08 -29.1616L-931.776 -20.8635L-931.729 -20.8592ZM-1043.43 -67.048L-1054.66 -86.9326L-967.522 -78.926C-955.453 -77.8169 -944.238 -77.5213 -934.005 -77.9378L-873.611 -72.3884L-908.016 -41.9142L-1043.48 -67.0523L-1043.43 -67.048ZM-900.181 -98.3746C-913.631 -91.8093 -932.908 -88.3234 -956.965 -88.8379L-984.472 -131.643L-970.802 -133.129L-971.21 -132.855L-900.208 -98.4054L-900.181 -98.3746ZM-966.721 -133.574L-944.547 -136.002L-947.525 -142.861L-878.848 -136.551C-875.362 -121.165 -882.088 -108.414 -897.229 -99.9406L-966.721 -133.574ZM-962.353 -89.2765L-957.856 -88.8633C-963.16 -89.0115 -968.573 -89.2827 -974.3 -89.809L-1072.98 -98.8768L-1087.01 -120.488L-989.058 -131.132L-962.353 -89.2765ZM-916.62 -79.4495C-887.01 -83.4841 -867.899 -94.6734 -861.468 -110.391L-678.674 -82.8543L-691.515 -58.7653L-916.62 -79.4495V-79.4495ZM-963.358 -178.998L-900.455 -173.218L-889.479 -158.303C-884.64 -151.696 -881.358 -145.374 -879.593 -139.389L-948.791 -145.748L-963.358 -178.998ZM-1068.67 -154.559C-1049.9 -153.144 -1034.85 -155.917 -1026.39 -162.318C-1019.1 -167.895 -1017.51 -175.635 -1021.67 -184.356L-968.422 -179.463L-950.767 -138.693L-1037.55 -129.312L-1078.19 -155.292L-1068.72 -154.563L-1068.67 -154.559ZM-1084.14 -155.725L-1042.13 -128.801L-1093.82 -123.206L-1088.27 -114.584L-1117.38 -117.258L-1139.94 -159.977L-1084.14 -155.725V-155.725ZM-1086.22 -111.399L-1078.47 -99.3813L-1155.34 -106.444L-1161.19 -118.288L-1086.27 -111.403L-1086.22 -111.399ZM-1202.08 -201.159L-1117.21 -163.823L-1186.28 -169.068L-1202.12 -201.163L-1202.08 -201.159ZM-1145.07 -160.363L-1122.73 -117.75L-1162.72 -121.425L-1183.4 -163.291L-1145.07 -160.363V-160.363ZM-1290.1 -214.9L-1218.64 -202.342L-1214.24 -193.147L-1287.81 -201.292L-1290.1 -214.9ZM-1377.83 -230.311L-1295.2 -215.793L-1292.91 -201.845L-1379.83 -211.472L-1377.81 -230.28L-1377.83 -230.311ZM-1378.47 -208.718L-1292.44 -199.174L-1285.78 -158.594L-1378.47 -208.718V-208.718ZM-1237.44 -124.22L-1236.91 -126.206L-1242.38 -127.811L-1243.22 -124.751L-1275.35 -127.704L-1287.34 -198.62L-1212.89 -190.366L-1178.56 -118.81L-1237.49 -124.225L-1237.44 -124.22ZM-1150.01 -95.7224L-1060.13 -87.4635L-1029.73 -33.2558L-1123.44 -41.8669L-1150.01 -95.7224ZM-1114.57 -23.9518L-1121.67 -38.3121L-1027.72 -29.6791L-1010.51 1.01456L-1111.85 -8.29682C-1110.96 -12.964 -1111.77 -18.2675 -1114.59 -23.9253L-1114.57 -23.9518ZM-1133.92 109.689L-1177.12 10.4936L-1160.94 11.981C-1135.43 14.3252 -1117.74 7.24453 -1112.87 -4.85769L-915.786 13.2519L-887.932 57.8133L-1051.7 42.7655L-1050.64 44.7848C-1039.93 65.2995 -1026.09 91.9823 -1011.05 120.979L-1133.96 109.685L-1133.92 109.689ZM-973.628 180.919C-1006.73 117.532 -1037.66 58.5839 -1043.55 47.3301L-979.887 53.1796L-911.914 201.034L-965.729 196.089C-968.318 191.131 -970.969 186.054 -973.656 180.889L-973.628 180.919ZM-786.569 308.087L-913.558 296.419C-914.554 294.518 -915.504 292.622 -916.536 290.633C-921.799 280.427 -927.767 268.94 -934.276 256.357L-808.093 267.952C-801.835 280.935 -794.661 294.314 -786.542 308.118L-786.569 308.087ZM-813.015 257.494L-939.814 245.842C-946.993 232.068 -954.749 217.109 -963.139 201.047L-829.856 213.294C-825.549 227.455 -819.903 242.191 -813.015 257.494ZM-831.207 208.506L-905.138 201.713L-973.727 53.8022L-885.361 61.9219L-840.29 134.069C-841.795 156.882 -838.858 181.658 -831.207 208.506V208.506ZM-839.54 125.687L-879.255 62.4829L-820.66 67.8671C-830.7 85.4864 -837.018 104.748 -839.492 125.691L-839.54 125.687ZM-818.585 64.2419L-881.819 58.4315L-909.863 13.8527L-785.903 25.243C-798.715 36.8699 -809.835 49.8111 -818.585 64.2419ZM-782.305 22.0123L-912.18 10.0784L-928.414 -15.7213L-923.56 -20.0804L-746.402 -3.80176C-759.229 3.95136 -771.391 12.5005 -782.305 22.0123V22.0123ZM-741.428 -6.70827L-920.101 -23.126L-866.421 -71.0494L-868.046 -71.8487L-801.026 -65.6904L-733.475 -11.15C-736.137 -9.69878 -738.82 -8.22108 -741.428 -6.70827ZM-730.309 -12.8659L-795.326 -65.195L-633.124 -50.2907C-665.433 -41.3316 -699.411 -29.2188 -730.309 -12.8659ZM-624.657 -52.5936L-684.483 -58.0908L-662.586 -99.6353L-551.985 -71.8634C-562.561 -67.6344 -575.055 -63.9491 -589.685 -60.8557C-600.832 -58.4882 -612.581 -55.7237 -624.63 -52.5628L-624.657 -52.5936Z" fill="#1A2747"/>
</g>
<path d="M51.0024 215.5L56.9973 211.5L286.5 402.499L275.505 406.509L51.0024 215.5Z" fill="url(#paint0_linear_330_395)"/>
<g style="mix-blend-mode:screen">
<circle cx="42.1943" cy="42.1943" r="42.1943" transform="matrix(0.937326 -0.348453 0.786857 0.617136 229 413.406)" fill="#FFD647" fill-opacity="0.2"/>
<circle cx="33.5869" cy="33.5869" r="33.5869" transform="matrix(0.937326 -0.348453 0.786857 0.617136 243.832 415.725)" fill="#FFD647" fill-opacity="0.2"/>
<circle cx="23.9406" cy="23.9406" r="23.9406" transform="matrix(0.937326 -0.348453 0.786857 0.617136 260.721 418.316)" fill="#FFD647" fill-opacity="0.1"/>
<circle cx="13.1342" cy="13.1342" r="13.1342" transform="matrix(0.937326 -0.348453 0.786857 0.617136 279.333 421.214)" fill="#FFD647" fill-opacity="0.24"/>
</g>
<g filter="url(#filter0_d_330_395)">
<path d="M303.931 429.767L311.067 426.325L303.525 423.761L303.931 429.767Z" fill="url(#paint1_linear_330_395)"/>
<path d="M270.197 410.679L277.333 407.237L269.786 404.673L270.197 410.679Z" fill="url(#paint2_linear_330_395)"/>
<path d="M281.263 414.049C281.263 415.291 280.837 416.167 280.138 416.593C280.117 416.608 277.943 417.865 277.918 417.875C277.193 418.281 277.659 417.363 276.559 416.73C274.35 415.453 272.555 412.361 272.555 409.822C272.555 408.565 271.395 408.555 272.104 408.139C272.125 408.129 274.441 406.847 274.461 406.837C275.181 406.446 276.169 406.517 277.254 407.146C279.463 408.423 281.258 411.515 281.258 414.054L281.263 414.049Z" fill="url(#paint3_linear_330_395)"/>
<path d="M278.944 415.366C278.944 417.905 277.15 418.924 274.94 417.647C272.73 416.37 270.936 413.278 270.936 410.739C270.936 408.2 272.73 407.181 274.94 408.458C277.15 409.735 278.944 412.827 278.944 415.366Z" fill="url(#paint4_linear_330_395)"/>
<path style="mix-blend-mode:screen" d="M275.136 408.366C274.077 407.753 273.114 407.672 272.399 408.032C273.068 407.844 273.894 407.986 274.791 408.503C277.001 409.78 278.795 412.872 278.795 415.411C278.795 416.734 278.309 417.641 277.533 418.032C278.512 417.758 279.145 416.785 279.145 415.28C279.145 412.74 277.351 409.649 275.141 408.371L275.136 408.366Z" fill="url(#paint5_radial_330_395)"/>
<path style="mix-blend-mode:multiply" d="M275.067 409.583C273.364 408.6 271.985 409.385 271.985 411.342C271.985 413.298 273.364 415.675 275.067 416.658C276.77 417.642 278.148 416.856 278.148 414.9C278.148 412.943 276.77 410.566 275.067 409.583ZM276.242 413.481L277.2 413.399C277.342 413.389 277.53 413.577 277.57 413.785C277.631 414.068 277.662 414.347 277.662 414.621C277.662 414.895 277.631 415.138 277.57 415.351C277.525 415.508 277.342 415.488 277.2 415.31L276.242 414.124C276.161 414.023 276.111 413.891 276.111 413.785C276.111 413.764 276.111 413.749 276.111 413.729C276.111 413.709 276.111 413.688 276.111 413.673C276.111 413.562 276.156 413.491 276.242 413.481V413.481ZM276.851 412.512L275.893 412.594C275.812 412.599 275.71 412.543 275.629 412.436C275.604 412.401 275.573 412.365 275.543 412.33C275.457 412.229 275.406 412.097 275.406 411.985V410.723C275.406 410.531 275.563 410.485 275.725 410.627C276.177 411.027 276.582 411.534 276.901 412.087C277.018 412.289 276.987 412.497 276.846 412.512H276.851ZM274.717 410.323V411.585C274.717 411.696 274.666 411.767 274.58 411.772C274.55 411.772 274.524 411.772 274.494 411.778C274.413 411.793 274.311 411.732 274.23 411.631L273.272 410.445C273.13 410.267 273.1 410.024 273.217 409.958C273.536 409.77 273.941 409.73 274.392 409.857C274.555 409.902 274.712 410.13 274.712 410.323H274.717ZM272.928 410.931L273.886 412.117C273.967 412.218 274.017 412.35 274.017 412.457C274.017 412.477 274.017 412.492 274.017 412.512C274.017 412.533 274.017 412.553 274.017 412.568C274.017 412.68 273.972 412.751 273.886 412.761L272.928 412.842C272.786 412.852 272.598 412.665 272.558 412.457C272.497 412.173 272.466 411.894 272.466 411.62C272.466 411.347 272.497 411.103 272.558 410.891C272.603 410.733 272.786 410.754 272.928 410.931V410.931ZM273.272 413.729L274.23 413.648C274.311 413.643 274.413 413.698 274.494 413.805C274.519 413.84 274.55 413.876 274.58 413.911C274.666 414.013 274.717 414.144 274.717 414.256V415.518C274.717 415.711 274.56 415.756 274.398 415.614C273.946 415.214 273.541 414.707 273.222 414.155C273.105 413.952 273.136 413.744 273.277 413.729H273.272ZM275.406 415.918V414.656C275.406 414.545 275.457 414.474 275.543 414.469C275.573 414.469 275.599 414.469 275.629 414.464C275.71 414.449 275.812 414.509 275.893 414.611L276.851 415.797C276.993 415.974 277.023 416.217 276.906 416.283C276.587 416.471 276.182 416.511 275.73 416.385C275.568 416.339 275.411 416.111 275.411 415.918H275.406Z" fill="url(#paint6_linear_330_395)"/>
<path d="M274.873 409.66C273.17 408.677 271.792 409.462 271.792 411.419C271.792 413.375 273.17 415.752 274.873 416.736C276.576 417.719 277.955 416.933 277.955 414.977C277.955 413.02 276.576 410.643 274.873 409.66V409.66ZM276.049 413.558L277.007 413.477C277.149 413.466 277.337 413.654 277.377 413.862C277.438 414.146 277.468 414.424 277.468 414.698C277.468 414.972 277.438 415.215 277.377 415.428C277.331 415.585 277.149 415.565 277.007 415.387L276.049 414.201C275.968 414.1 275.917 413.968 275.917 413.862C275.917 413.841 275.917 413.826 275.917 413.806C275.917 413.786 275.917 413.765 275.917 413.75C275.917 413.639 275.963 413.568 276.049 413.558V413.558ZM276.657 412.59L275.699 412.671C275.618 412.676 275.517 412.62 275.436 412.514C275.411 412.478 275.38 412.443 275.35 412.407C275.264 412.306 275.213 412.174 275.213 412.062V410.8C275.213 410.608 275.37 410.562 275.532 410.704C275.983 411.105 276.389 411.611 276.708 412.164C276.825 412.367 276.794 412.574 276.652 412.59H276.657ZM274.524 410.4V411.662C274.524 411.774 274.473 411.845 274.387 411.85C274.356 411.85 274.331 411.85 274.301 411.855C274.219 411.87 274.118 411.809 274.037 411.708L273.079 410.522C272.937 410.344 272.907 410.101 273.023 410.035C273.343 409.848 273.748 409.807 274.199 409.934C274.361 409.979 274.519 410.207 274.519 410.4H274.524ZM272.734 411.008L273.692 412.194C273.773 412.296 273.824 412.427 273.824 412.534C273.824 412.554 273.824 412.569 273.824 412.59C273.824 412.61 273.824 412.63 273.824 412.645C273.824 412.757 273.779 412.828 273.692 412.838L272.734 412.919C272.593 412.929 272.405 412.742 272.364 412.534C272.304 412.25 272.273 411.971 272.273 411.698C272.273 411.424 272.304 411.181 272.364 410.968C272.41 410.811 272.593 410.831 272.734 411.008V411.008ZM273.079 413.806L274.037 413.725C274.118 413.72 274.219 413.776 274.301 413.882C274.326 413.918 274.356 413.953 274.387 413.988C274.473 414.09 274.524 414.222 274.524 414.333V415.595C274.524 415.788 274.366 415.833 274.204 415.691C273.753 415.291 273.348 414.784 273.028 414.232C272.912 414.029 272.942 413.821 273.084 413.806H273.079ZM275.213 415.996V414.734C275.213 414.622 275.264 414.551 275.35 414.546C275.38 414.546 275.405 414.546 275.436 414.541C275.517 414.526 275.618 414.587 275.699 414.688L276.657 415.874C276.799 416.051 276.83 416.295 276.713 416.36C276.394 416.548 275.988 416.589 275.537 416.462C275.375 416.416 275.218 416.188 275.218 415.996H275.213Z" fill="url(#paint7_linear_330_395)"/>
<path d="M314.898 432.949C314.898 434.191 314.472 435.068 313.773 435.493C313.752 435.509 311.578 436.766 311.553 436.776C310.828 437.181 311.294 436.264 310.194 435.63C307.985 434.353 306.19 431.261 306.19 428.722C306.19 427.465 305.03 427.455 305.739 427.039C305.76 427.029 308.076 425.747 308.096 425.737C308.816 425.347 309.804 425.418 310.889 426.046C313.098 427.323 314.893 430.415 314.893 432.954L314.898 432.949Z" fill="url(#paint8_linear_330_395)"/>
<path d="M311.427 436.83C312.98 435.921 312.964 433.003 311.391 430.311C309.817 427.618 307.281 426.173 305.728 427.081C304.174 427.989 304.19 430.908 305.764 433.6C307.337 436.292 309.873 437.738 311.427 436.83Z" fill="url(#paint9_linear_330_395)"/>
<path style="mix-blend-mode:screen" d="M308.771 427.262C307.712 426.649 306.749 426.567 306.034 426.927C306.703 426.74 307.529 426.882 308.426 427.399C310.636 428.676 312.43 431.768 312.43 434.307C312.43 435.63 311.944 436.537 311.168 436.927C312.146 436.653 312.78 435.68 312.78 434.175C312.78 431.636 310.986 428.544 308.776 427.267L308.771 427.262Z" fill="url(#paint10_radial_330_395)"/>
<path style="mix-blend-mode:multiply" d="M308.711 428.477C307.008 427.494 305.629 428.28 305.629 430.236C305.629 432.193 307.008 434.57 308.711 435.553C310.414 436.536 311.792 435.751 311.792 433.794C311.792 431.838 310.414 429.461 308.711 428.477ZM309.887 432.375L310.844 432.294C310.986 432.284 311.174 432.471 311.214 432.679C311.275 432.963 311.306 433.242 311.306 433.515C311.306 433.789 311.275 434.032 311.214 434.245C311.169 434.402 310.986 434.382 310.844 434.205L309.887 433.019C309.805 432.917 309.755 432.786 309.755 432.679C309.755 432.659 309.755 432.644 309.755 432.623C309.755 432.603 309.755 432.583 309.755 432.568C309.755 432.456 309.8 432.385 309.887 432.375V432.375ZM310.495 431.407L309.537 431.488C309.456 431.493 309.354 431.437 309.273 431.331C309.248 431.295 309.218 431.26 309.187 431.225C309.101 431.123 309.05 430.991 309.05 430.88V429.618C309.05 429.425 309.207 429.38 309.37 429.522C309.821 429.922 310.226 430.429 310.545 430.981C310.662 431.184 310.632 431.392 310.49 431.407H310.495ZM308.361 429.217V430.479C308.361 430.591 308.31 430.662 308.224 430.667C308.194 430.667 308.168 430.667 308.138 430.672C308.057 430.687 307.956 430.626 307.874 430.525L306.917 429.339C306.775 429.162 306.744 428.918 306.861 428.853C307.18 428.665 307.586 428.624 308.037 428.751C308.199 428.797 308.356 429.025 308.356 429.217H308.361ZM306.572 429.826L307.53 431.012C307.611 431.113 307.662 431.245 307.662 431.351C307.662 431.372 307.662 431.387 307.662 431.407C307.662 431.427 307.662 431.448 307.662 431.463C307.662 431.574 307.616 431.645 307.53 431.655L306.572 431.736C306.43 431.747 306.242 431.559 306.202 431.351C306.141 431.067 306.111 430.789 306.111 430.515C306.111 430.241 306.141 429.998 306.202 429.785C306.247 429.628 306.43 429.648 306.572 429.826V429.826ZM306.917 432.623L307.874 432.542C307.956 432.537 308.057 432.593 308.138 432.699C308.163 432.735 308.194 432.77 308.224 432.806C308.31 432.907 308.361 433.039 308.361 433.15V434.413C308.361 434.605 308.204 434.651 308.042 434.509C307.591 434.108 307.185 433.602 306.866 433.049C306.749 432.846 306.78 432.639 306.922 432.623H306.917ZM309.05 434.813V433.551C309.05 433.439 309.101 433.368 309.187 433.363C309.218 433.363 309.243 433.363 309.273 433.358C309.354 433.343 309.456 433.404 309.537 433.505L310.495 434.691C310.637 434.869 310.667 435.112 310.551 435.178C310.231 435.365 309.826 435.406 309.375 435.279C309.212 435.234 309.055 435.006 309.055 434.813H309.05Z" fill="url(#paint11_linear_330_395)"/>
<path d="M308.517 428.559C306.815 427.575 305.436 428.361 305.436 430.317C305.436 432.274 306.815 434.651 308.517 435.634C310.22 436.617 311.599 435.832 311.599 433.875C311.599 431.919 310.22 429.542 308.517 428.559ZM309.693 432.456L310.651 432.375C310.793 432.365 310.981 432.552 311.021 432.76C311.082 433.044 311.112 433.323 311.112 433.596C311.112 433.87 311.082 434.113 311.021 434.326C310.976 434.483 310.793 434.463 310.651 434.286L309.693 433.1C309.612 432.998 309.562 432.867 309.562 432.76C309.562 432.74 309.562 432.725 309.562 432.704C309.562 432.684 309.562 432.664 309.562 432.649C309.562 432.537 309.607 432.466 309.693 432.456V432.456ZM310.302 431.488L309.344 431.569C309.263 431.574 309.161 431.518 309.08 431.412C309.055 431.377 309.024 431.341 308.994 431.306C308.908 431.204 308.857 431.072 308.857 430.961V429.699C308.857 429.506 309.014 429.461 309.176 429.603C309.627 430.003 310.033 430.51 310.352 431.062C310.469 431.265 310.438 431.473 310.296 431.488H310.302ZM308.168 429.299V430.561C308.168 430.672 308.117 430.743 308.031 430.748C308 430.748 307.975 430.748 307.945 430.753C307.864 430.768 307.762 430.708 307.681 430.606L306.723 429.42C306.581 429.243 306.551 428.999 306.668 428.934C306.987 428.746 307.392 428.706 307.843 428.832C308.006 428.878 308.163 429.106 308.163 429.299H308.168ZM306.379 429.907L307.337 431.093C307.418 431.194 307.468 431.326 307.468 431.432C307.468 431.453 307.468 431.468 307.468 431.488C307.468 431.508 307.468 431.529 307.468 431.544C307.468 431.655 307.423 431.726 307.337 431.736L306.379 431.817C306.237 431.828 306.049 431.64 306.009 431.432C305.948 431.148 305.917 430.87 305.917 430.596C305.917 430.322 305.948 430.079 306.009 429.866C306.054 429.709 306.237 429.729 306.379 429.907V429.907ZM306.723 432.704L307.681 432.623C307.762 432.618 307.864 432.674 307.945 432.78C307.97 432.816 308 432.851 308.031 432.887C308.117 432.988 308.168 433.12 308.168 433.232V434.494C308.168 434.686 308.011 434.732 307.848 434.59C307.397 434.189 306.992 433.683 306.673 433.13C306.556 432.927 306.586 432.72 306.728 432.704H306.723ZM308.857 434.894V433.632C308.857 433.52 308.908 433.449 308.994 433.444C309.024 433.444 309.05 433.444 309.08 433.439C309.161 433.424 309.263 433.485 309.344 433.586L310.302 434.772C310.443 434.95 310.474 435.193 310.357 435.259C310.038 435.446 309.633 435.487 309.181 435.36C309.019 435.315 308.862 435.087 308.862 434.894H308.857Z" fill="url(#paint12_linear_330_395)"/>
<path d="M308.918 426.771C308.183 426.345 307.463 426.132 306.779 426.132C305.183 426.132 304.103 427.278 303.926 429.766L279.562 416.842C279.598 415.909 279.618 415.646 279.618 415.367C279.618 412.569 277.712 409.28 275.274 407.871C274.539 407.445 273.82 407.232 273.135 407.232C271.392 407.232 270.262 408.596 270.252 410.709C269.36 409.584 268.047 407.668 268.047 406.077C268.047 402.757 271.275 397.881 278.635 395.783C285.411 393.852 288.27 393.776 292.872 394.759C297.474 395.742 297.854 396.422 300.038 396.645C302.228 396.873 303.206 394.531 313.92 400.644C324.635 406.756 329.237 412.488 331.65 414.303C334.062 416.112 335.572 416.832 336.404 418.114C337.235 419.396 338.102 425.808 336.895 427.698C335.689 429.584 323.312 435.696 320.144 436C317.235 436.279 313.789 434.363 313.241 434.044C313.145 431.297 311.28 428.144 308.908 426.776L308.918 426.771Z" fill="url(#paint13_radial_330_395)"/>
<path opacity="0.5" d="M271.719 399.376C273.402 397.916 275.688 396.629 278.642 395.788C283.006 394.541 285.748 394.069 288.374 394.15C290.588 394.683 293.158 395.524 295.251 396.487C298.247 397.866 282.089 404.115 282.089 404.115C279.311 404.318 273.118 401.206 271.719 399.376V399.376Z" fill="url(#paint14_linear_330_395)"/>
<path opacity="0.5" d="M311.214 414.602C311.214 414.602 307.175 409.462 301.706 406.376C295.279 402.747 291.929 402.478 291.929 402.478L296.952 398.373L303.409 396.538C303.409 396.538 306.759 397.025 311.27 399.452C315.781 401.885 325.315 409.123 325.315 409.123L311.219 414.602H311.214Z" fill="url(#paint15_linear_330_395)"/>
<path d="M324.178 408.434C326.022 408.728 330.584 413.087 330.736 415.068C330.888 417.05 322.576 422.159 317.543 421.247C312.51 420.329 310.681 415.149 310.985 414.08C311.289 413.011 320.361 407.826 324.178 408.439V408.434Z" fill="url(#paint16_linear_330_395)"/>
<path d="M318.792 420.958C322.781 420.958 327.966 418.11 329.78 416.148C330.398 415.479 330.409 415.16 330.403 415.104C330.267 413.32 325.801 409.078 324.154 408.814C323.972 408.784 323.764 408.769 323.546 408.769C319.562 408.769 311.772 413.295 311.296 414.222C311.23 414.46 311.417 415.697 312.34 417.177C313.054 418.322 314.681 420.324 317.581 420.851C317.956 420.917 318.361 420.953 318.792 420.953V420.958Z" fill="url(#paint17_linear_330_395)"/>
<path d="M304.123 396.448C304.123 396.448 297.833 396.27 293.987 396.65C290.14 397.025 285.984 398.541 283.885 400.594C282.122 402.317 280.51 404.344 282.091 404.116C283.678 403.888 291.371 402.606 291.974 402.454C292.578 402.302 294.483 400.675 297.656 398.86C300.601 397.177 304.123 396.443 304.123 396.443V396.448Z" fill="url(#paint18_linear_330_395)"/>
<path d="M282.653 403.609C282.703 403.609 282.764 403.609 282.825 403.594C284.406 403.366 291.542 402.165 292.125 402.018C292.343 401.962 292.951 401.541 293.656 401.06C294.639 400.381 295.987 399.453 297.726 398.46C299.201 397.618 300.807 397.01 302.059 396.615C301.71 396.615 301.329 396.615 300.934 396.615C299.003 396.615 296.824 396.579 294.796 396.777C290.833 397.167 286.849 398.713 284.893 400.629C283.159 402.322 282.546 403.33 282.551 403.604C282.571 403.604 282.602 403.614 282.653 403.614V403.609Z" fill="url(#paint19_linear_330_395)"/>
<g opacity="0.5">
<path d="M293.306 422.99C293.306 422.954 293.073 419.285 294.649 414.637C295.612 411.788 299.089 407.475 299.124 407.43L299.322 407.587C299.287 407.627 295.84 411.91 294.892 414.718C293.336 419.32 293.559 422.934 293.564 422.969L293.311 422.984L293.306 422.99Z" fill="url(#paint20_linear_330_395)"/>
</g>
<path opacity="0.5" d="M325.742 427.653L325.575 428.246C325.575 428.246 322.483 429.736 320.222 430.193C317.957 430.644 316.051 428.398 316.051 428.059C316.051 427.78 317.197 428.226 319.462 427.917C320.8 427.734 324.373 428.175 325.747 427.653H325.742Z" fill="url(#paint21_linear_330_395)"/>
<path d="M325.041 426.594L325.786 427.653C325.786 427.653 324.939 428.039 323.809 428.485C322.679 428.931 321.27 429.427 320.134 429.655C318.999 429.883 317.975 429.554 317.235 429.128C316.49 428.703 316.034 428.175 316.034 428.008C316.034 427.729 317.114 427.689 319.374 427.38C320.494 427.228 322.436 426.685 323.839 426.204C324.28 426.052 324.772 426.209 325.041 426.594V426.594Z" fill="url(#paint22_radial_330_395)"/>
<path d="M324.983 426.604L325.201 426.913C325.15 426.933 325.576 427.673 325.5 427.703C325.475 427.714 324.674 428.073 323.625 428.489C322.545 428.91 321.212 429.381 320.138 429.594C319.925 429.634 319.717 429.66 319.514 429.665C318.627 429.69 317.837 429.396 317.239 429.052C316.585 428.661 316.189 428.18 316.22 428.023C316.255 427.82 316.904 427.749 318.207 427.587C318.577 427.541 318.997 427.485 319.474 427.42C320.021 427.344 320.751 427.176 321.516 426.974C322.302 426.766 323.123 426.512 323.817 426.279C324.248 426.132 324.72 426.264 324.988 426.604H324.983Z" fill="url(#paint23_radial_330_395)"/>
<path d="M324.915 426.614L325.158 426.959C325.057 426.999 325.361 427.704 325.204 427.76C325.148 427.78 324.403 428.114 323.425 428.494C322.396 428.89 321.139 429.331 320.12 429.533C319.913 429.574 319.705 429.599 319.497 429.604C318.605 429.63 317.814 429.326 317.226 428.976C316.664 428.621 316.334 428.185 316.39 428.038C316.461 427.846 317.1 427.78 318.326 427.628C318.686 427.582 319.097 427.526 319.558 427.46C320.095 427.379 320.799 427.217 321.539 427.02C322.3 426.817 323.095 426.574 323.775 426.345C324.195 426.204 324.646 426.315 324.915 426.609V426.614Z" fill="url(#paint24_radial_330_395)"/>
<path d="M324.851 426.625L325.12 427.005C324.968 427.071 325.15 427.73 324.912 427.816C324.831 427.846 324.131 428.155 323.229 428.505C322.251 428.88 321.07 429.286 320.107 429.478C319.899 429.519 319.691 429.544 319.484 429.549C318.587 429.569 317.796 429.255 317.218 428.905C316.742 428.586 316.483 428.191 316.564 428.064C316.676 427.887 317.294 427.821 318.45 427.679C318.799 427.633 319.195 427.583 319.641 427.512C320.168 427.431 320.852 427.273 321.567 427.081C322.307 426.883 323.077 426.65 323.736 426.427C324.141 426.29 324.577 426.376 324.851 426.63V426.625Z" fill="url(#paint25_radial_330_395)"/>
<path d="M324.792 426.64L325.086 427.056C324.888 427.142 324.944 427.76 324.63 427.872C324.523 427.912 323.874 428.196 323.043 428.515C322.116 428.87 321.006 429.245 320.104 429.423C319.896 429.463 319.688 429.489 319.48 429.489C318.578 429.509 317.787 429.179 317.225 428.83C316.84 428.546 316.647 428.196 316.753 428.08C316.9 427.917 317.509 427.852 318.588 427.72C318.923 427.679 319.313 427.623 319.744 427.552C320.261 427.471 320.92 427.314 321.609 427.132C322.324 426.939 323.069 426.716 323.712 426.498C324.108 426.367 324.528 426.427 324.797 426.635L324.792 426.64Z" fill="url(#paint26_radial_330_395)"/>
<path d="M324.72 426.65L325.034 427.101C324.786 427.207 324.715 427.785 324.324 427.927C324.188 427.978 323.589 428.236 322.834 428.52C321.957 428.85 320.923 429.194 320.077 429.361C319.869 429.402 319.661 429.427 319.454 429.427C318.546 429.443 317.756 429.103 317.203 428.753C316.909 428.505 316.783 428.201 316.914 428.094C317.102 427.947 317.69 427.887 318.698 427.755C319.023 427.714 319.398 427.659 319.814 427.593C320.32 427.506 320.959 427.359 321.618 427.182C322.307 426.995 323.027 426.782 323.655 426.569C324.041 426.442 324.441 426.483 324.715 426.645L324.72 426.65Z" fill="url(#paint27_radial_330_395)"/>
<path d="M324.653 426.66L324.992 427.141C324.693 427.268 324.501 427.805 324.029 427.978C323.867 428.038 323.32 428.271 322.641 428.525C321.814 428.834 320.857 429.143 320.066 429.305C319.858 429.346 319.65 429.366 319.443 429.371C318.53 429.387 317.74 429.037 317.197 428.682C316.989 428.469 316.934 428.211 317.091 428.114C317.319 427.983 317.892 427.922 318.824 427.8C319.138 427.76 319.503 427.704 319.904 427.638C320.4 427.552 321.014 427.405 321.647 427.238C322.316 427.06 323.011 426.847 323.619 426.645C323.989 426.523 324.374 426.538 324.648 426.66H324.653Z" fill="url(#paint28_radial_330_395)"/>
<path d="M324.591 426.67L324.956 427.187C324.607 427.334 324.292 427.83 323.74 428.033C323.552 428.099 323.051 428.312 322.447 428.535C321.672 428.819 320.79 429.102 320.055 429.249C319.847 429.29 319.64 429.31 319.437 429.315C318.514 429.325 317.729 428.966 317.197 428.611C317.08 428.433 317.09 428.221 317.273 428.139C317.541 428.023 318.094 427.962 318.955 427.851C319.259 427.81 319.609 427.754 319.994 427.688C320.481 427.602 321.069 427.46 321.682 427.298C322.326 427.126 322.995 426.923 323.588 426.725C323.948 426.609 324.318 426.599 324.591 426.675V426.67Z" fill="url(#paint29_radial_330_395)"/>
<path d="M324.528 426.685L324.918 427.237C324.518 427.41 324.082 427.866 323.449 428.094C323.231 428.17 322.78 428.357 322.253 428.545C321.528 428.808 320.722 429.057 320.043 429.194C319.835 429.234 319.627 429.254 319.424 429.259C318.497 429.27 317.711 428.895 317.189 428.54C317.164 428.398 317.24 428.231 317.448 428.16C317.752 428.058 318.294 427.997 319.085 427.896C319.379 427.856 319.713 427.805 320.088 427.734C320.565 427.643 321.132 427.511 321.715 427.349C322.339 427.181 322.977 426.989 323.56 426.801C323.91 426.69 324.26 426.659 324.533 426.69L324.528 426.685Z" fill="url(#paint30_radial_330_395)"/>
<path d="M324.463 426.695L324.878 427.283C324.427 427.476 323.865 427.891 323.16 428.145C322.917 428.231 322.516 428.393 322.06 428.55C321.381 428.789 320.656 429.006 320.033 429.133C319.83 429.174 319.617 429.194 319.415 429.194C318.482 429.199 317.696 428.814 317.185 428.459C317.245 428.353 317.392 428.231 317.626 428.17C317.97 428.084 318.497 428.023 319.212 427.932C319.496 427.897 319.82 427.841 320.175 427.77C320.641 427.679 321.183 427.547 321.741 427.395C322.339 427.233 322.957 427.05 323.52 426.868C323.855 426.756 324.189 426.705 324.463 426.695V426.695Z" fill="url(#paint31_radial_330_395)"/>
<path d="M324.402 426.706L324.838 427.329C324.336 427.542 323.652 427.917 322.866 428.201C322.598 428.298 322.243 428.429 321.868 428.561C321.239 428.774 320.591 428.967 320.028 429.078C319.825 429.119 319.617 429.139 319.41 429.139C318.472 429.139 317.686 428.749 317.185 428.389C317.337 428.318 317.549 428.242 317.808 428.196C318.193 428.13 318.7 428.069 319.344 427.983C319.612 427.948 319.927 427.892 320.271 427.821C320.727 427.73 321.249 427.603 321.782 427.456C322.359 427.299 322.947 427.127 323.495 426.949C323.819 426.843 324.133 426.767 324.412 426.711L324.402 426.706Z" fill="url(#paint32_radial_330_395)"/>
<path d="M319.39 429.077C319.598 429.077 319.806 429.057 320.009 429.017C320.784 428.86 321.707 428.571 322.573 428.256C323.44 427.942 324.251 427.608 324.798 427.375L324.337 426.721C323.592 426.984 322.68 427.268 321.803 427.506C320.926 427.745 320.08 427.937 319.466 428.023C318.899 428.099 318.402 428.16 317.981 428.211C317.697 428.246 317.414 428.282 317.175 428.312C317.667 428.672 318.453 429.077 319.395 429.077H319.39Z" fill="url(#paint33_radial_330_395)"/>
<path opacity="0.5" d="M337.226 421.571L334.545 422.939L334.099 422.676L336.704 419.29C336.902 419.863 337.084 420.664 337.226 421.566V421.571Z" fill="url(#paint34_linear_330_395)"/>
<path d="M337.218 421.042L334.096 422.71L334.273 420.936C334.304 420.622 334.471 420.343 334.724 420.161L336.696 418.762C336.894 419.334 337.076 420.135 337.218 421.037V421.042Z" fill="url(#paint35_radial_330_395)"/>
<path d="M336.713 418.838C336.895 419.38 337.068 420.14 337.205 420.987L334.179 422.609L334.346 420.926C334.376 420.642 334.569 420.353 334.802 420.191L336.713 418.838V418.838Z" fill="url(#paint36_radial_330_395)"/>
<path d="M336.707 418.913C336.88 419.43 337.042 420.14 337.163 420.935L334.234 422.507L334.391 420.92C334.416 420.667 334.639 420.373 334.852 420.221L336.702 418.913H336.707Z" fill="url(#paint37_radial_330_395)"/>
<path d="M336.706 418.985C336.868 419.472 337.015 420.136 337.132 420.881L334.298 422.401L334.45 420.906C334.471 420.678 334.729 420.379 334.917 420.247L336.706 418.985Z" fill="url(#paint38_radial_330_395)"/>
<path d="M336.718 419.061C336.865 419.522 337.001 420.14 337.113 420.824L334.381 422.299L334.523 420.895C334.543 420.698 334.827 420.394 334.989 420.277L336.718 419.061Z" fill="url(#paint39_radial_330_395)"/>
<path d="M336.716 419.132C336.853 419.563 336.98 420.135 337.081 420.769L334.446 422.193L334.577 420.88C334.593 420.708 334.912 420.399 335.049 420.303L336.716 419.132Z" fill="url(#paint40_radial_330_395)"/>
<path d="M336.715 419.207C336.836 419.612 336.953 420.135 337.049 420.717L334.51 422.091L334.632 420.869C334.647 420.728 334.992 420.413 335.108 420.332L336.715 419.207V419.207Z" fill="url(#paint41_radial_330_395)"/>
<path d="M336.722 419.279C336.834 419.659 336.94 420.135 337.027 420.657L334.584 421.98L334.695 420.85C334.705 420.738 335.08 420.419 335.177 420.353L336.722 419.273V419.279Z" fill="url(#paint42_radial_330_395)"/>
<path d="M336.721 419.355C336.822 419.705 336.914 420.136 336.995 420.607L334.648 421.885L334.749 420.846C334.76 420.759 335.165 420.435 335.236 420.384L336.721 419.355V419.355Z" fill="url(#paint43_radial_330_395)"/>
<path d="M336.734 419.426C336.82 419.75 336.901 420.13 336.972 420.551L334.722 421.777L334.818 420.835C334.823 420.779 335.259 420.45 335.305 420.414L336.729 419.431L336.734 419.426Z" fill="url(#paint44_radial_330_395)"/>
<path d="M336.736 419.501C336.812 419.795 336.883 420.135 336.944 420.494L334.795 421.67L334.881 420.819C334.881 420.788 335.353 420.454 335.373 420.439L336.736 419.501V419.501Z" fill="url(#paint45_radial_330_395)"/>
<path d="M336.922 420.44C336.866 420.131 336.805 419.842 336.744 419.573L334.945 420.805L334.869 421.565L336.922 420.435V420.44Z" fill="url(#paint46_radial_330_395)"/>
<path opacity="0.5" d="M329.098 423.431C326.102 425.271 321.287 426.715 318.008 426.827C314.724 426.938 285.413 409.848 285.413 409.848C285.413 409.848 307.598 421.393 312.575 423.431C317.557 425.468 323.102 424.561 327.516 422.184C331.206 420.197 334.212 417.557 335.093 416.746C335.651 417.182 336.087 417.602 336.416 418.109C336.426 418.124 336.437 418.139 336.442 418.155C335.367 419.042 332.503 421.338 329.098 423.426V423.431Z" fill="url(#paint47_linear_330_395)"/>
<path style="mix-blend-mode:multiply" d="M331.539 423.38V426.32L327.804 428.413V425.64L331.539 423.38Z" fill="url(#paint48_linear_330_395)"/>
<path d="M331.631 423.218V426.157L327.896 428.251V425.478L331.631 423.218Z" fill="url(#paint49_linear_330_395)"/>
<path d="M333.764 421.799L333.035 422.397C330.962 424.095 328.62 425.438 326.101 426.365L333.764 421.799Z" fill="url(#paint50_linear_330_395)"/>
<path d="M325.946 430.308C325.119 430.308 324.314 429.933 323.776 429.234L323.386 428.727L323.589 428.575L323.979 429.082C324.724 430.05 326.047 430.339 327.127 429.756L333.573 426.284C334.263 425.914 334.739 425.23 334.856 424.455L335.195 422.148L335.444 422.184L335.109 424.49C334.982 425.341 334.455 426.097 333.695 426.507L327.248 429.979C326.833 430.202 326.387 430.308 325.946 430.308V430.308Z" fill="url(#paint51_linear_330_395)"/>
<path d="M336.322 428.363C333.95 430.355 325.953 434.354 321.868 435.651L322.537 434.318C322.841 433.71 323.348 433.229 323.971 432.95L325.116 432.443C327.843 431.232 330.489 429.853 333.043 428.317L334.63 427.365C335.06 427.106 335.618 427.238 335.887 427.664L336.328 428.368L336.322 428.363Z" fill="url(#paint52_linear_330_395)"/>
<g opacity="0.5">
<path d="M301.809 427.869L301.667 427.788L282.306 416.952L282.29 416.911C282.245 416.8 281.226 414.2 281.069 412.34C280.907 410.474 281.611 407.636 281.642 407.52L281.885 407.58C281.88 407.611 281.165 410.5 281.322 412.319C281.469 414.017 282.382 416.435 282.513 416.779L301.657 427.494C301.874 426.754 302.878 423.505 304.348 420.682C305.519 418.437 308.504 416.364 308.631 416.273L308.772 416.48C308.742 416.501 305.716 418.604 304.571 420.794C302.924 423.961 301.864 427.671 301.854 427.712L301.809 427.864V427.869Z" fill="url(#paint53_linear_330_395)"/>
</g>
<path style="mix-blend-mode:screen" d="M306.711 416.999C307.832 416.999 308.536 416.761 308.942 416.259C309.251 415.869 309.342 415.367 309.205 414.764C308.678 412.438 299.155 404.369 290.969 404.369C290.817 404.369 290.665 404.369 290.513 404.379C284.421 404.612 281.557 407.512 281.557 407.512C281.557 407.512 293.103 414.288 300.123 415.92C303.397 416.68 305.368 417.005 306.706 417.005L306.711 416.999Z" fill="url(#paint54_linear_330_395)"/>
<path d="M281.861 407.359C281.861 407.359 284.583 405.246 290.538 405.023C298.46 404.719 308.12 412.914 308.571 414.906C309.022 416.898 306.138 416.65 300.269 415.281C293.255 413.649 281.861 407.359 281.861 407.359V407.359Z" fill="url(#paint55_linear_330_395)"/>
<path opacity="0.5" d="M301.589 427.617L282.689 416.979C282.689 416.979 296.384 423.314 298.31 424.449C300.236 425.58 301.594 427.617 301.594 427.617H301.589Z" fill="url(#paint56_linear_330_395)"/>
<path d="M294.804 411.961C294.637 412.26 294.485 412.539 294.338 412.808C289.538 410.871 284.616 408.307 282.792 407.334C283.912 406.731 286.441 405.661 290.516 405.509C290.653 405.504 290.79 405.499 290.927 405.499C293.293 405.499 295.787 406.239 298.119 407.313C297.414 408.074 296.147 409.594 294.804 411.961Z" fill="url(#paint57_linear_330_395)"/>
<path d="M296.949 411.312C297.781 409.68 298.556 408.433 299.012 407.744C302.084 409.295 304.79 411.348 306.427 412.934C306.25 413.76 305.946 414.759 305.429 415.783C304.227 415.646 302.59 415.331 300.345 414.809C299.088 414.515 297.679 414.069 296.219 413.532C296.377 412.767 296.61 411.996 296.954 411.312H296.949Z" fill="url(#paint58_linear_330_395)"/>
<path opacity="0.5" d="M281.56 407.506C281.56 407.506 273.43 404.374 272.082 403.644C270.734 402.914 270.541 402.889 270.571 400.567C270.571 400.567 270.409 401.865 272.893 403.294C275.376 404.723 281.56 407.506 281.56 407.506V407.506Z" fill="url(#paint59_linear_330_395)"/>
<path d="M272.21 403.563C272.21 403.563 268.353 405.048 268.652 403.466C268.956 401.88 270.573 400.461 270.573 400.461C270.573 400.461 270.234 403.056 272.205 403.568L272.21 403.563Z" fill="url(#paint60_linear_330_395)"/>
<path d="M271.457 403.506C271.457 403.506 268.786 404.383 269.039 403.045C269.293 401.707 270.296 401.018 270.296 401.018C270.296 401.018 269.546 403.314 271.457 403.501V403.506Z" fill="url(#paint61_linear_330_395)"/>
<path style="mix-blend-mode:multiply" d="M272.288 403.507C272.288 403.507 271.026 403.847 269.992 404.05C269.84 403.558 269.708 403.026 269.723 402.681C269.764 401.87 270.574 400.451 270.574 400.451C270.574 400.451 270.027 403.274 272.288 403.502V403.507Z" fill="url(#paint62_linear_330_395)"/>
<g style="mix-blend-mode:screen">
<path d="M324.154 408.819C324.782 408.92 325.811 409.595 326.86 410.492C327.337 413.122 327.636 415.636 327.616 417.891C325.755 419.103 323.231 420.274 320.844 420.745C321.463 417.699 322.309 413.051 322.694 408.834C322.988 408.799 323.272 408.773 323.541 408.773C323.764 408.773 323.966 408.789 324.149 408.819H324.154Z" fill="url(#paint63_linear_330_395)"/>
<path d="M315.7 420.248C317.048 417.542 319.035 413.34 320.494 409.346C321.244 409.113 321.964 408.941 322.618 408.85C321.751 413.371 320.342 417.699 319.004 420.958C318.938 420.958 318.867 420.958 318.801 420.958C318.371 420.958 317.965 420.922 317.59 420.857C316.891 420.73 316.262 420.512 315.705 420.248H315.7Z" fill="url(#paint64_linear_330_395)"/>
</g>
<g style="mix-blend-mode:screen">
<path d="M273.139 406.614C273.93 406.614 274.751 406.858 275.582 407.339C278.192 408.844 280.235 412.372 280.235 415.367C280.235 416.016 280.138 416.579 279.981 417.065L279.561 416.842C279.596 415.91 279.616 415.646 279.616 415.367C279.616 412.57 277.711 409.28 275.273 407.871C274.538 407.445 273.818 407.233 273.134 407.233C271.391 407.233 270.26 408.596 270.25 410.709C270.073 410.486 269.88 410.233 269.682 409.959C269.976 407.663 271.558 406.619 273.134 406.619L273.139 406.614Z" fill="url(#paint65_linear_330_395)"/>
<path d="M306.776 425.515C307.566 425.515 308.388 425.758 309.219 426.239C311.829 427.745 313.871 431.272 313.871 434.268C313.871 434.308 313.871 434.344 313.871 434.379C313.572 434.227 313.355 434.1 313.248 434.04C313.152 431.293 311.287 428.14 308.915 426.772C308.18 426.346 307.46 426.133 306.776 426.133C305.179 426.133 304.1 427.278 303.922 429.767L303.284 429.427C303.37 426.731 305.078 425.515 306.781 425.515H306.776Z" fill="url(#paint66_linear_330_395)"/>
</g>
<path style="mix-blend-mode:multiply" d="M281.557 407.505C281.557 407.505 282.368 409.005 282.287 410.181C282.206 411.357 282.855 411.56 283.341 411.397C283.828 411.235 283.544 406.983 281.557 407.51V407.505Z" fill="url(#paint67_linear_330_395)"/>
<path d="M281.474 407.486C281.474 407.486 283.066 406.528 283.897 406.528C284.728 406.528 284.576 409.924 283.669 410C282.762 410.076 283.066 408.49 282.615 408.115C282.164 407.74 281.474 407.486 281.474 407.486Z" fill="url(#paint68_radial_330_395)"/>
<path style="mix-blend-mode:screen" d="M283.324 407.82C283.324 408.474 283.557 409.006 283.841 409.006C284.125 409.006 284.358 408.474 284.358 407.82C284.358 407.166 284.125 406.634 283.841 406.634C283.557 406.634 283.324 407.166 283.324 407.82V407.82Z" fill="url(#paint69_linear_330_395)"/>
<path style="mix-blend-mode:screen" d="M300.938 396.61C301.334 396.61 301.714 396.61 302.063 396.61C300.811 397.01 299.21 397.613 297.73 398.454C297.122 398.799 296.569 399.139 296.052 399.463C295.784 398.622 295.439 397.714 295.003 396.746C296.97 396.569 299.068 396.604 300.933 396.604L300.938 396.61Z" fill="url(#paint70_linear_330_395)"/>
</g>
</g>
<defs>
<filter id="filter0_d_330_395" x="262.047" y="394.139" width="81.4437" height="56.9619" filterUnits="userSpaceOnUse" color-interpolation-filters="sRGB">
<feFlood flood-opacity="0" result="BackgroundImageFix"/>
<feColorMatrix in="SourceAlpha" type="matrix" values="0 0 0 0 0 0 0 0 0 0 0 0 0 0 0 0 0 0 127 0" result="hardAlpha"/>
<feOffset dy="8"/>
<feGaussianBlur stdDeviation="3"/>
<feComposite in2="hardAlpha" operator="out"/>
<feColorMatrix type="matrix" values="0 0 0 0 0 0 0 0 0 0 0 0 0 0 0 0 0 0 0.5 0"/>
<feBlend mode="normal" in2="BackgroundImageFix" result="effect1_dropShadow_330_395"/>
<feBlend mode="normal" in="SourceGraphic" in2="effect1_dropShadow_330_395" result="shape"/>
</filter>
<linearGradient id="paint0_linear_330_395" x1="90.0166" y1="216.001" x2="162.739" y2="434.323" gradientUnits="userSpaceOnUse">
<stop stop-color="#FFD647" stop-opacity="0"/>
<stop offset="0.505208" stop-color="#FFCF47"/>
</linearGradient>
<linearGradient id="paint1_linear_330_395" x1="311.067" y1="426.766" x2="303.52" y2="426.766" gradientUnits="userSpaceOnUse">
<stop stop-color="#25054D"/>
<stop offset="1" stop-color="#1B2B69"/>
</linearGradient>
<linearGradient id="paint2_linear_330_395" x1="277.328" y1="407.673" x2="269.786" y2="407.673" gradientUnits="userSpaceOnUse">
<stop stop-color="#25054D"/>
<stop offset="1" stop-color="#1B2B69"/>
</linearGradient>
<linearGradient id="paint3_linear_330_395" x1="280.335" y1="416.527" x2="273.311" y2="407.115" gradientUnits="userSpaceOnUse">
<stop stop-color="#010002"/>
<stop offset="0.03" stop-color="#030005"/>
<stop offset="0.19" stop-color="#0F0318"/>
<stop offset="0.36" stop-color="#160524"/>
<stop offset="0.54" stop-color="#190628"/>
<stop offset="0.7" stop-color="#0B0212"/>
<stop offset="0.86" stop-color="#020004"/>
<stop offset="1"/>
</linearGradient>
<linearGradient id="paint4_linear_330_395" x1="270.936" y1="413.055" x2="278.944" y2="413.055" gradientUnits="userSpaceOnUse">
<stop stop-color="#100221"/>
<stop offset="1" stop-color="#10054D"/>
</linearGradient>
<radialGradient id="paint5_radial_330_395" cx="0" cy="0" r="1" gradientUnits="userSpaceOnUse" gradientTransform="translate(276.417 412.92) scale(4.32523)">
<stop stop-color="white"/>
<stop offset="1"/>
</radialGradient>
<linearGradient id="paint6_linear_330_395" x1="271.985" y1="413.121" x2="278.153" y2="413.121" gradientUnits="userSpaceOnUse">
<stop stop-color="#BCBEC0"/>
<stop offset="1" stop-color="#E6E7E8"/>
</linearGradient>
<linearGradient id="paint7_linear_330_395" x1="271.792" y1="413.198" x2="277.96" y2="413.198" gradientUnits="userSpaceOnUse">
<stop stop-color="#BCBEC0"/>
<stop offset="1" stop-color="#E6E7E8"/>
</linearGradient>
<linearGradient id="paint8_linear_330_395" x1="313.97" y1="435.428" x2="306.946" y2="426.011" gradientUnits="userSpaceOnUse">
<stop stop-color="#010002"/>
<stop offset="0.03" stop-color="#030005"/>
<stop offset="0.19" stop-color="#0F0318"/>
<stop offset="0.36" stop-color="#160524"/>
<stop offset="0.54" stop-color="#190628"/>
<stop offset="0.7" stop-color="#0B0212"/>
<stop offset="0.86" stop-color="#020004"/>
<stop offset="1"/>
</linearGradient>
<linearGradient id="paint9_linear_330_395" x1="304.574" y1="431.924" x2="312.582" y2="431.924" gradientUnits="userSpaceOnUse">
<stop stop-color="#100221"/>
<stop offset="1" stop-color="#10054D"/>
</linearGradient>
<radialGradient id="paint10_radial_330_395" cx="0" cy="0" r="1" gradientUnits="userSpaceOnUse" gradientTransform="translate(310.062 431.822) scale(4.32523 4.32523)">
<stop stop-color="white"/>
<stop offset="1"/>
</radialGradient>
<linearGradient id="paint11_linear_330_395" x1="305.629" y1="432.02" x2="311.797" y2="432.02" gradientUnits="userSpaceOnUse">
<stop stop-color="#BCBEC0"/>
<stop offset="1" stop-color="#E6E7E8"/>
</linearGradient>
<linearGradient id="paint12_linear_330_395" x1="305.436" y1="432.096" x2="311.604" y2="432.096" gradientUnits="userSpaceOnUse">
<stop stop-color="#BCBEC0"/>
<stop offset="1" stop-color="#E6E7E8"/>
</linearGradient>
<radialGradient id="paint13_radial_330_395" cx="0" cy="0" r="1" gradientUnits="userSpaceOnUse" gradientTransform="translate(303.586 405.023) rotate(180) scale(44.7332 44.7332)">
<stop stop-color="#2AF6FF"/>
<stop offset="0.65" stop-color="#1376BD"/>
<stop offset="0.76" stop-color="#1B66AF"/>
<stop offset="0.96" stop-color="#323E8A"/>
<stop offset="0.99" stop-color="#363885"/>
</radialGradient>
<linearGradient id="paint14_linear_330_395" x1="286.833" y1="404.333" x2="277.107" y2="385.21" gradientUnits="userSpaceOnUse">
<stop stop-color="#138BBD"/>
<stop offset="0.63" stop-color="#30C4D3"/>
<stop offset="1" stop-color="#43E8E1"/>
</linearGradient>
<linearGradient id="paint15_linear_330_395" x1="319.699" y1="405.57" x2="289.937" y2="405.57" gradientUnits="userSpaceOnUse">
<stop stop-color="#138BBD"/>
<stop offset="0.63" stop-color="#30C4D3"/>
<stop offset="1" stop-color="#43E8E1"/>
</linearGradient>
<linearGradient id="paint16_linear_330_395" x1="330.736" y1="414.866" x2="310.954" y2="414.866" gradientUnits="userSpaceOnUse">
<stop stop-color="#010002"/>
<stop offset="0.03" stop-color="#030005"/>
<stop offset="0.19" stop-color="#0F0318"/>
<stop offset="0.36" stop-color="#160524"/>
<stop offset="0.54" stop-color="#190628"/>
<stop offset="0.7" stop-color="#0B0212"/>
<stop offset="0.86" stop-color="#020004"/>
<stop offset="1"/>
</linearGradient>
<linearGradient id="paint17_linear_330_395" x1="330.403" y1="414.866" x2="311.281" y2="414.866" gradientUnits="userSpaceOnUse">
<stop stop-color="#25054D"/>
<stop offset="0.69" stop-color="#1B2B69"/>
<stop offset="1" stop-color="#3746A3"/>
</linearGradient>
<linearGradient id="paint18_linear_330_395" x1="304.118" y1="400.269" x2="281.442" y2="400.269" gradientUnits="userSpaceOnUse">
<stop stop-color="#010002"/>
<stop offset="0.03" stop-color="#030005"/>
<stop offset="0.19" stop-color="#0F0318"/>
<stop offset="0.36" stop-color="#160524"/>
<stop offset="0.54" stop-color="#190628"/>
<stop offset="0.7" stop-color="#0B0212"/>
<stop offset="0.86" stop-color="#020004"/>
<stop offset="1"/>
</linearGradient>
<linearGradient id="paint19_linear_330_395" x1="275.907" y1="405.946" x2="301.466" y2="395.738" gradientUnits="userSpaceOnUse">
<stop stop-color="#25054D"/>
<stop offset="0.69" stop-color="#1B2B69"/>
<stop offset="1" stop-color="#3746A3"/>
</linearGradient>
<linearGradient id="paint20_linear_330_395" x1="299.317" y1="415.21" x2="293.291" y2="415.21" gradientUnits="userSpaceOnUse">
<stop offset="0.04" stop-color="#138BBD"/>
<stop offset="0.23" stop-color="#169AC6"/>
<stop offset="0.59" stop-color="#1EC2DF"/>
<stop offset="1" stop-color="#2AF6FF"/>
</linearGradient>
<linearGradient id="paint21_linear_330_395" x1="325.737" y1="428.951" x2="316.041" y2="428.951" gradientUnits="userSpaceOnUse">
<stop stop-color="#138BBD"/>
<stop offset="0.63" stop-color="#30C4D3"/>
<stop offset="1" stop-color="#43E8E1"/>
</linearGradient>
<radialGradient id="paint22_radial_330_395" cx="0" cy="0" r="1" gradientUnits="userSpaceOnUse" gradientTransform="translate(319.288 428.449) rotate(180) scale(2.03748 2.03748)">
<stop stop-color="#FF63CE"/>
<stop offset="1" stop-color="#9F19AB"/>
</radialGradient>
<radialGradient id="paint23_radial_330_395" cx="0" cy="0" r="1" gradientUnits="userSpaceOnUse" gradientTransform="translate(319.312 428.433) rotate(180) scale(2.21994)">
<stop stop-color="#FF63CE"/>
<stop offset="1" stop-color="#9F19AB"/>
</radialGradient>
<radialGradient id="paint24_radial_330_395" cx="0" cy="0" r="1" gradientUnits="userSpaceOnUse" gradientTransform="translate(319.34 428.423) rotate(180) scale(2.38719)">
<stop stop-color="#FF63CE"/>
<stop offset="1" stop-color="#9F19AB"/>
</radialGradient>
<radialGradient id="paint25_radial_330_395" cx="0" cy="0" r="1" gradientUnits="userSpaceOnUse" gradientTransform="translate(319.413 428.409) rotate(180) scale(2.55445 2.55445)">
<stop stop-color="#FF63CE"/>
<stop offset="1" stop-color="#9F19AB"/>
</radialGradient>
<radialGradient id="paint26_radial_330_395" cx="0" cy="0" r="1" gradientUnits="userSpaceOnUse" gradientTransform="translate(319.506 428.399) rotate(180) scale(2.73691)">
<stop stop-color="#FF63CE"/>
<stop offset="1" stop-color="#9F19AB"/>
</radialGradient>
<radialGradient id="paint27_radial_330_395" cx="0" cy="0" r="1" gradientUnits="userSpaceOnUse" gradientTransform="translate(319.591 428.383) rotate(180) scale(2.90923 2.90923)">
<stop stop-color="#FF63CE"/>
<stop offset="1" stop-color="#9F19AB"/>
</radialGradient>
<radialGradient id="paint28_radial_330_395" cx="0" cy="0" r="1" gradientUnits="userSpaceOnUse" gradientTransform="translate(319.671 428.368) rotate(180) scale(3.07142 3.07142)">
<stop stop-color="#FF63CE"/>
<stop offset="1" stop-color="#9F19AB"/>
</radialGradient>
<radialGradient id="paint29_radial_330_395" cx="0" cy="0" r="1" gradientUnits="userSpaceOnUse" gradientTransform="translate(319.731 428.352) rotate(180) scale(3.23361 3.23361)">
<stop stop-color="#FF63CE"/>
<stop offset="1" stop-color="#9F19AB"/>
</radialGradient>
<radialGradient id="paint30_radial_330_395" cx="0" cy="0" r="1" gradientUnits="userSpaceOnUse" gradientTransform="translate(319.764 428.332) rotate(180) scale(3.40593)">
<stop stop-color="#FF63CE"/>
<stop offset="1" stop-color="#9F19AB"/>
</radialGradient>
<radialGradient id="paint31_radial_330_395" cx="0" cy="0" r="1" gradientUnits="userSpaceOnUse" gradientTransform="translate(319.744 428.302) rotate(180) scale(3.6036)">
<stop stop-color="#FF63CE"/>
<stop offset="1" stop-color="#9F19AB"/>
</radialGradient>
<radialGradient id="paint32_radial_330_395" cx="0" cy="0" r="1" gradientUnits="userSpaceOnUse" gradientTransform="translate(319.734 428.267) rotate(180) scale(3.80126 3.80126)">
<stop stop-color="#FF63CE"/>
<stop offset="1" stop-color="#9F19AB"/>
</radialGradient>
<radialGradient id="paint33_radial_330_395" cx="0" cy="0" r="1" gradientUnits="userSpaceOnUse" gradientTransform="translate(319.72 428.236) rotate(180) scale(3.99386)">
<stop stop-color="#FF63CE"/>
<stop offset="1" stop-color="#9F19AB"/>
</radialGradient>
<linearGradient id="paint34_linear_330_395" x1="337.226" y1="421.115" x2="334.104" y2="421.115" gradientUnits="userSpaceOnUse">
<stop stop-color="#138BBD"/>
<stop offset="0.63" stop-color="#30C4D3"/>
<stop offset="1" stop-color="#43E8E1"/>
</linearGradient>
<radialGradient id="paint35_radial_330_395" cx="0" cy="0" r="1" gradientUnits="userSpaceOnUse" gradientTransform="translate(337.603 419.902) rotate(180) scale(2.14898 2.14898)">
<stop stop-color="#FF63CE"/>
<stop offset="1" stop-color="#9F19AB"/>
</radialGradient>
<radialGradient id="paint36_radial_330_395" cx="0" cy="0" r="1" gradientUnits="userSpaceOnUse" gradientTransform="translate(337.539 419.907) rotate(180) scale(2.12871)">
<stop stop-color="#FF63CE"/>
<stop offset="1" stop-color="#9F19AB"/>
</radialGradient>
<radialGradient id="paint37_radial_330_395" cx="0" cy="0" r="1" gradientUnits="userSpaceOnUse" gradientTransform="translate(337.462 419.917) rotate(180) scale(2.10336)">
<stop stop-color="#FF63CE"/>
<stop offset="1" stop-color="#9F19AB"/>
</radialGradient>
<radialGradient id="paint38_radial_330_395" cx="0" cy="0" r="1" gradientUnits="userSpaceOnUse" gradientTransform="translate(337.39 419.928) rotate(180) scale(2.07295 2.07295)">
<stop stop-color="#FF63CE"/>
<stop offset="1" stop-color="#9F19AB"/>
</radialGradient>
<radialGradient id="paint39_radial_330_395" cx="0" cy="0" r="1" gradientUnits="userSpaceOnUse" gradientTransform="translate(337.331 419.937) rotate(180) scale(2.03748)">
<stop stop-color="#FF63CE"/>
<stop offset="1" stop-color="#9F19AB"/>
</radialGradient>
<radialGradient id="paint40_radial_330_395" cx="0" cy="0" r="1" gradientUnits="userSpaceOnUse" gradientTransform="translate(337.269 419.948) rotate(180) scale(1.99693 1.99693)">
<stop stop-color="#FF63CE"/>
<stop offset="1" stop-color="#9F19AB"/>
</radialGradient>
<radialGradient id="paint41_radial_330_395" cx="0" cy="0" r="1" gradientUnits="userSpaceOnUse" gradientTransform="translate(337.201 419.962) rotate(180) scale(1.95132 1.95131)">
<stop stop-color="#FF63CE"/>
<stop offset="1" stop-color="#9F19AB"/>
</radialGradient>
<radialGradient id="paint42_radial_330_395" cx="0" cy="0" r="1" gradientUnits="userSpaceOnUse" gradientTransform="translate(337.143 419.978) rotate(180) scale(1.90063 1.90063)">
<stop stop-color="#FF63CE"/>
<stop offset="1" stop-color="#9F19AB"/>
</radialGradient>
<radialGradient id="paint43_radial_330_395" cx="0" cy="0" r="1" gradientUnits="userSpaceOnUse" gradientTransform="translate(337.086 419.999) rotate(180) scale(1.84488 1.84488)">
<stop stop-color="#FF63CE"/>
<stop offset="1" stop-color="#9F19AB"/>
</radialGradient>
<radialGradient id="paint44_radial_330_395" cx="0" cy="0" r="1" gradientUnits="userSpaceOnUse" gradientTransform="translate(337.038 420.014) rotate(180) scale(1.78405 1.78406)">
<stop stop-color="#FF63CE"/>
<stop offset="1" stop-color="#9F19AB"/>
</radialGradient>
<radialGradient id="paint45_radial_330_395" cx="0" cy="0" r="1" gradientUnits="userSpaceOnUse" gradientTransform="translate(336.985 420.033) rotate(180) scale(1.71817 1.71817)">
<stop stop-color="#FF63CE"/>
<stop offset="1" stop-color="#9F19AB"/>
</radialGradient>
<radialGradient id="paint46_radial_330_395" cx="0" cy="0" r="1" gradientUnits="userSpaceOnUse" gradientTransform="translate(336.937 420.055) rotate(180) scale(1.65228 1.65228)">
<stop stop-color="#FF63CE"/>
<stop offset="1" stop-color="#9F19AB"/>
</radialGradient>
<linearGradient id="paint47_linear_330_395" x1="310.01" y1="403.127" x2="312.114" y2="428.084" gradientUnits="userSpaceOnUse">
<stop stop-color="#138BBD"/>
<stop offset="0.63" stop-color="#30C4D3"/>
<stop offset="1" stop-color="#43E8E1"/>
</linearGradient>
<linearGradient id="paint48_linear_330_395" x1="330.672" y1="429.578" x2="329.339" y2="424.677" gradientUnits="userSpaceOnUse">
<stop stop-color="white"/>
<stop offset="1" stop-color="#8B949E"/>
</linearGradient>
<linearGradient id="paint49_linear_330_395" x1="330.77" y1="429.416" x2="329.431" y2="424.515" gradientUnits="userSpaceOnUse">
<stop stop-color="white"/>
<stop offset="1" stop-color="#8B949E"/>
</linearGradient>
<linearGradient id="paint50_linear_330_395" x1="333.759" y1="424.085" x2="326.096" y2="424.085" gradientUnits="userSpaceOnUse">
<stop stop-color="#138BBD"/>
<stop offset="0.63" stop-color="#30C4D3"/>
<stop offset="1" stop-color="#43E8E1"/>
</linearGradient>
<linearGradient id="paint51_linear_330_395" x1="335.444" y1="426.228" x2="323.391" y2="426.228" gradientUnits="userSpaceOnUse">
<stop offset="0.04" stop-color="#138BBD"/>
<stop offset="0.23" stop-color="#169AC6"/>
<stop offset="0.59" stop-color="#1EC2DF"/>
<stop offset="1" stop-color="#2AF6FF"/>
</linearGradient>
<linearGradient id="paint52_linear_330_395" x1="336.317" y1="431.44" x2="321.862" y2="431.44" gradientUnits="userSpaceOnUse">
<stop stop-color="#100221"/>
<stop offset="1" stop-color="#10054D"/>
</linearGradient>
<linearGradient id="paint53_linear_330_395" x1="308.767" y1="417.692" x2="281.038" y2="417.692" gradientUnits="userSpaceOnUse">
<stop offset="0.04" stop-color="#138BBD"/>
<stop offset="0.23" stop-color="#169AC6"/>
<stop offset="0.59" stop-color="#1EC2DF"/>
<stop offset="1" stop-color="#2AF6FF"/>
</linearGradient>
<linearGradient id="paint54_linear_330_395" x1="309.266" y1="410.684" x2="281.557" y2="410.684" gradientUnits="userSpaceOnUse">
<stop stop-color="#25054D"/>
<stop offset="1" stop-color="#1B2B69"/>
</linearGradient>
<linearGradient id="paint55_linear_330_395" x1="308.617" y1="410.684" x2="281.861" y2="410.684" gradientUnits="userSpaceOnUse">
<stop stop-color="#010002"/>
<stop offset="0.03" stop-color="#030005"/>
<stop offset="0.19" stop-color="#0F0318"/>
<stop offset="0.36" stop-color="#160524"/>
<stop offset="0.54" stop-color="#190628"/>
<stop offset="0.7" stop-color="#0B0212"/>
<stop offset="0.86" stop-color="#020004"/>
<stop offset="1"/>
</linearGradient>
<linearGradient id="paint56_linear_330_395" x1="296.987" y1="412.447" x2="292.081" y2="422.407" gradientUnits="userSpaceOnUse">
<stop stop-color="#138BBD"/>
<stop offset="0.63" stop-color="#30C4D3"/>
<stop offset="1" stop-color="#43E8E1"/>
</linearGradient>
<linearGradient id="paint57_linear_330_395" x1="288.803" y1="416.989" x2="291.074" y2="403.7" gradientUnits="userSpaceOnUse">
<stop stop-color="#25054D"/>
<stop offset="0.69" stop-color="#1B2B69"/>
<stop offset="1" stop-color="#3746A3"/>
</linearGradient>
<linearGradient id="paint58_linear_330_395" x1="300.34" y1="418.96" x2="302.611" y2="405.671" gradientUnits="userSpaceOnUse">
<stop stop-color="#25054D"/>
<stop offset="0.69" stop-color="#1B2B69"/>
<stop offset="1" stop-color="#3746A3"/>
</linearGradient>
<linearGradient id="paint59_linear_330_395" x1="281.56" y1="404.034" x2="270.561" y2="404.034" gradientUnits="userSpaceOnUse">
<stop stop-color="#138BBD"/>
<stop offset="0.63" stop-color="#30C4D3"/>
<stop offset="1" stop-color="#43E8E1"/>
</linearGradient>
<linearGradient id="paint60_linear_330_395" x1="267.081" y1="403.35" x2="270.735" y2="402.225" gradientUnits="userSpaceOnUse">
<stop stop-color="white"/>
<stop offset="1" stop-color="#8B949E"/>
</linearGradient>
<linearGradient id="paint61_linear_330_395" x1="271.949" y1="402.031" x2="262.82" y2="404.119" gradientUnits="userSpaceOnUse">
<stop stop-color="white"/>
<stop offset="1" stop-color="#8B949E"/>
</linearGradient>
<linearGradient id="paint62_linear_330_395" x1="272.729" y1="401.698" x2="263.342" y2="403.847" gradientUnits="userSpaceOnUse">
<stop stop-color="white"/>
<stop offset="1" stop-color="#8B949E"/>
</linearGradient>
<linearGradient id="paint63_linear_330_395" x1="325.578" y1="420.785" x2="318.285" y2="398.91" gradientUnits="userSpaceOnUse">
<stop/>
<stop offset="0.7" stop-color="#1B2B69"/>
<stop offset="1" stop-color="#3746A3"/>
</linearGradient>
<linearGradient id="paint64_linear_330_395" x1="321.67" y1="422.088" x2="314.377" y2="400.213" gradientUnits="userSpaceOnUse">
<stop/>
<stop offset="0.7" stop-color="#1B2B69"/>
<stop offset="1" stop-color="#3746A3"/>
</linearGradient>
<linearGradient id="paint65_linear_330_395" x1="274.685" y1="413.041" x2="279.657" y2="407.856" gradientUnits="userSpaceOnUse">
<stop/>
<stop offset="0.7" stop-color="#1B2B69"/>
<stop offset="1" stop-color="#3746A3"/>
</linearGradient>
<linearGradient id="paint66_linear_330_395" x1="308.388" y1="431.683" x2="311.57" y2="425.687" gradientUnits="userSpaceOnUse">
<stop/>
<stop offset="0.7" stop-color="#1B2B69"/>
<stop offset="1" stop-color="#3746A3"/>
</linearGradient>
<linearGradient id="paint67_linear_330_395" x1="284.39" y1="406.745" x2="281.471" y2="410.835" gradientUnits="userSpaceOnUse">
<stop stop-color="#696969"/>
<stop offset="0.24" stop-color="#9C9C9C"/>
<stop offset="0.48" stop-color="#C6C6C6"/>
<stop offset="0.69" stop-color="#E5E5E5"/>
<stop offset="0.87" stop-color="#F8F8F8"/>
<stop offset="1" stop-color="white"/>
</linearGradient>
<radialGradient id="paint68_radial_330_395" cx="0" cy="0" r="1" gradientUnits="userSpaceOnUse" gradientTransform="translate(284.323 407.618) rotate(180) scale(3.97358)">
<stop stop-color="#2AF6FF"/>
<stop offset="0.65" stop-color="#1376BD"/>
<stop offset="0.76" stop-color="#1B66AF"/>
<stop offset="0.96" stop-color="#323E8A"/>
<stop offset="0.99" stop-color="#363885"/>
</radialGradient>
<linearGradient id="paint69_linear_330_395" x1="283.268" y1="408.332" x2="284.505" y2="407.217" gradientUnits="userSpaceOnUse">
<stop/>
<stop offset="0.7" stop-color="#1B2B69"/>
<stop offset="1" stop-color="#3746A3"/>
</linearGradient>
<linearGradient id="paint70_linear_330_395" x1="299.261" y1="392.215" x2="294.724" y2="420.086" gradientUnits="userSpaceOnUse">
<stop/>
<stop offset="0.7" stop-color="#1B2B69"/>
<stop offset="1" stop-color="#3746A3"/>
</linearGradient>
<clipPath id="clip0_330_395">
<rect width="398" height="456" fill="white"/>
</clipPath>
</defs>
</svg>
